<svg width="20" height="20" viewBox="0 0 20 20" fill="none" xmlns="http://www.w3.org/2000/svg">
<rect width="20" height="20" fill="white"/>
<path d="M1.61768 14C1.35986 14 1.27572 13.8818 1.36523 13.6455L3.99707 6.73291C4.10807 6.44287 4.27637 6.29785 4.50195 6.29785H5.25391C5.47949 6.29785 5.64779 6.44287 5.75879 6.73291L8.39062 13.6455C8.48014 13.8818 8.396 14 8.13818 14H7.28418C7.04785 14 6.88314 13.8765 6.79004 13.6294L6.24219 12.1846H3.51367L2.96582 13.6294C2.87272 13.8765 2.70801 14 2.47168 14H1.61768ZM4.01318 10.8525H5.74268L5.08203 9.14453C5.00326 8.94401 4.95492 8.79899 4.93701 8.70947C4.92269 8.61637 4.90658 8.48031 4.88867 8.30127H4.86719C4.84928 8.48031 4.83138 8.61637 4.81348 8.70947C4.79915 8.79899 4.7526 8.94401 4.67383 9.14453L4.01318 10.8525ZM9.72266 14C9.47201 14 9.34668 13.8657 9.34668 13.5972V6.70068C9.34668 6.43213 9.47201 6.29785 9.72266 6.29785H11.2803C11.488 6.29785 11.6366 6.44108 11.7261 6.72754L13.1816 11.438C13.2461 11.6421 13.2909 11.8104 13.3159 11.9429C13.341 12.0718 13.3625 12.2257 13.3804 12.4048H13.4126C13.4305 12.2257 13.452 12.0718 13.4771 11.9429C13.5021 11.8104 13.5469 11.6421 13.6113 11.438L15.0669 6.72754C15.1564 6.44108 15.305 6.29785 15.5127 6.29785H17.0703C17.321 6.29785 17.4463 6.43213 17.4463 6.70068V13.5972C17.4463 13.8657 17.321 14 17.0703 14H16.2539C16.0033 14 15.8779 13.8657 15.8779 13.5972V9.16064C15.8779 8.9458 15.8869 8.73096 15.9048 8.51611H15.8672L14.3149 13.5649C14.2254 13.855 14.0715 14 13.853 14H12.9399C12.7215 14 12.5675 13.855 12.478 13.5649L10.9258 8.51611H10.8882C10.9061 8.73096 10.915 8.9458 10.915 9.16064V13.5972C10.915 13.8657 10.7897 14 10.5391 14H9.72266Z" fill="black"/>
</svg>
