<?xml version="1.0" encoding="iso-8859-1"?>
<!-- Uploaded to: SVG Repo, www.svgrepo.com, Generator: SVG Repo Mixer Tools -->
<svg height="800px" width="800px" version="1.1" id="Layer_1" xmlns="http://www.w3.org/2000/svg" xmlns:xlink="http://www.w3.org/1999/xlink" 
	 viewBox="0 0 512 512" xml:space="preserve">
<path style="fill:#E6E9ED;" d="M512,256c0,141.373-114.623,255.996-256.004,255.996S0,397.373,0,256
	C0,114.619,114.615,0.004,255.996,0.004S512,114.619,512,256z"/>
<g>
	<path style="fill:#CCD1D9;" d="M394.658,341.342c0,17.656-14.312,32-32,32c-17.672,0-31.999-14.344-31.999-32
		c0-17.687,14.327-31.999,31.999-31.999C380.346,309.343,394.658,323.655,394.658,341.342z"/>
	<path style="fill:#CCD1D9;" d="M266.66,106.666c0,17.68-14.32,32-32,32c-17.671,0-31.999-14.32-31.999-32
		c0-17.671,14.328-31.999,31.999-31.999C252.34,74.667,266.66,88.995,266.66,106.666z"/>
	<path style="fill:#CCD1D9;" d="M405.33,192.001c0,23.562-19.109,42.663-42.672,42.663s-42.663-19.101-42.663-42.663
		s19.101-42.663,42.663-42.663S405.33,168.438,405.33,192.001z"/>
	<path style="fill:#CCD1D9;" d="M277.332,405.342c0,23.562-19.102,42.655-42.672,42.655c-23.562,0-42.663-19.093-42.663-42.655
		c0-23.578,19.101-42.688,42.663-42.688C258.23,362.654,277.332,381.764,277.332,405.342z"/>
	<path style="fill:#CCD1D9;" d="M213.278,256c0,41.234-33.429,74.655-74.663,74.655S63.952,297.234,63.952,256
		c0-41.233,33.429-74.663,74.663-74.663S213.278,214.767,213.278,256z"/>
</g>
</svg>